<svg xmlns="http://www.w3.org/2000/svg" viewBox="0 0 280 280" fill="none" shape-rendering="auto" width="256" height="256"><metadata xmlns:rdf="http://www.w3.org/1999/02/22-rdf-syntax-ns#" xmlns:xsi="http://www.w3.org/2001/XMLSchema-instance" xmlns:dc="http://purl.org/dc/elements/1.1/" xmlns:dcterms="http://purl.org/dc/terms/"><rdf:RDF><rdf:Description><dc:title>Avataaars</dc:title><dc:creator>Pablo Stanley</dc:creator><dc:source xsi:type="dcterms:URI">https://avataaars.com/</dc:source><dcterms:license xsi:type="dcterms:URI">https://avataaars.com/</dcterms:license><dc:rights>Remix of „Avataaars” (https://avataaars.com/) by „Pablo Stanley”, licensed under „Free for personal and commercial use” (https://avataaars.com/)</dc:rights></rdf:Description></rdf:RDF></metadata><mask id="viewboxMask"><rect width="280" height="280" rx="0" ry="0" x="0" y="0" fill="#fff" /></mask><g mask="url(#viewboxMask)"><g transform="translate(8)"><path d="M132 36a56 56 0 0 0-56 56v6.17A12 12 0 0 0 66 110v14a12 12 0 0 0 10.3 11.88 56.04 56.04 0 0 0 31.7 44.73v18.4h-4a72 72 0 0 0-72 72v9h200v-9a72 72 0 0 0-72-72h-4v-18.39a56.04 56.04 0 0 0 31.7-44.73A12 12 0 0 0 198 124v-14a12 12 0 0 0-10-11.83V92a56 56 0 0 0-56-56Z" fill="#3b2219"/><path d="M108 180.61v8a55.79 55.79 0 0 0 24 5.39c8.59 0 16.73-1.93 24-5.39v-8a55.79 55.79 0 0 1-24 5.39 55.79 55.79 0 0 1-24-5.39Z" fill="#000" fill-opacity=".1"/><g transform="translate(0 170)"><path d="M132.5 65.83c27.34 0 49.5-13.2 49.5-29.48 0-1.37-.16-2.7-.46-4.02A72.03 72.03 0 0 1 232 101.05V110H32v-8.95A72.03 72.03 0 0 1 83.53 32a18 18 0 0 0-.53 4.35c0 16.28 22.16 29.48 49.5 29.48Z" fill="#ffffff"/></g><g transform="translate(78 134)"><path fill-rule="evenodd" clip-rule="evenodd" d="M35.12 29.87a19 19 0 0 1 37.77.09c.08.77-.77 2.04-1.85 2.04H37.1C36 32 35 30.82 35.12 29.87Z" fill="#000" fill-opacity=".7"/><path d="M69.59 32H38.4a11 11 0 0 1 15.6-6.8A11 11 0 0 1 69.59 32Z" fill="#FF4F6D"/><path d="M66.57 17.75A5 5 0 0 1 65 18H44c-.8 0-1.57-.2-2.24-.53A18.92 18.92 0 0 1 54 13c4.82 0 9.22 1.8 12.57 4.75Z" fill="#fff"/></g><g transform="translate(104 122)"><path fill-rule="evenodd" clip-rule="evenodd" d="M16 8c0 4.42 5.37 8 12 8s12-3.58 12-8" fill="#000" fill-opacity=".16"/></g><g transform="translate(76 90)"><circle cx="82" cy="22" r="12" fill="#fff"/><circle cx="82" cy="22" r="6" fill="#000" fill-opacity=".7"/><path fill-rule="evenodd" clip-rule="evenodd" d="M16.16 25.45c1.85-3.8 6-6.45 10.84-6.45 4.81 0 8.96 2.63 10.82 6.4.55 1.13-.24 2.05-1.03 1.37a15.05 15.05 0 0 0-9.8-3.43c-3.73 0-7.12 1.24-9.55 3.23-.9.73-1.82-.01-1.28-1.12Z" fill="#000" fill-opacity=".6"/></g><g transform="translate(76 82)"><path d="m22.77 1.58.9-.4C28.93-.91 36.88-.03 41.73 2.3c.57.27.18 1.15-.4 1.1-14.92-1.14-24.96 8.15-28.37 14.45-.1.18-.41.2-.49.03-2.3-5.32 4.45-13.98 10.3-16.3ZM89.23 1.58l-.9-.4C83.07-.91 75.12-.03 70.27 2.3c-.57.27-.18 1.15.4 1.1 14.92-1.14 24.96 8.15 28.37 14.45.1.18.41.2.49.03 2.3-5.32-4.45-13.98-10.3-16.3Z" fill-rule="evenodd" clip-rule="evenodd" fill="#000" fill-opacity=".6"/></g><g transform="translate(-1)"><path fill-rule="evenodd" clip-rule="evenodd" d="M69.03 76.21C81.97 43.13 95.65 26.6 110.06 26.6c.54 0 29.25-.24 48.05-.36C178.77 35.59 193 55.3 193 78.1V93h-82.94l-2.8-23.18L103.36 93H69V78.11c0-.63.01-1.27.03-1.9Z" fill="#000" fill-opacity=".16"/><path d="M40 145c-.09-18.98 30.32-97.2 41-110 7.92-9.5 27.7-15.45 52-15 24.3.45 44.86 3.81 53 14 12.32 15.43 40.09 92.02 40 111-.1 21.27-9.62 33.59-18.6 45.22A293.1 293.1 0 0 0 203 196c-10.28-2.66-27.85-5.18-46-6.68v-8.7A56 56 0 0 0 189 130V92c0-1.34-.05-2.68-.14-4h-76.8l-2.8-21.44L105.36 88H77.14c-.1 1.32-.14 2.66-.14 4v38a56 56 0 0 0 32 50.61v8.7c-18.15 1.5-35.72 4.03-46 6.69-1.42-1.93-2.9-3.84-4.39-5.78C49.62 178.6 40.1 166.27 40 145Z" fill="#724133"/></g><g transform="translate(49 72)"></g><g transform="translate(62 42)"><g fill-rule="evenodd" clip-rule="evenodd"><path d="M38.5 52c-21.3 0-28.85 5.1-29.55 5.77A2.92 2.92 0 0 0 6 60.66v2.88c0 1.6 1.32 2.89 2.95 2.89 0 0 5.91 0 5.91 2.88 0 .44.07.65.19.68-.04.82-.05 1.66-.05 2.5C15 85.34 23.31 93 37.24 93H40c14.72 0 25-8.43 25-20.5 0-1.5-.04-3-.17-4.46l1.58-.77c.58-.29 1.21-.5 1.9-.64 1.85-.38 3.95-.22 5.99.28.73.18 1.26.35 1.5.45l1.38.55c-.14 1.5-.18 3.04-.18 4.6C77 85.34 85.31 93 99.24 93H102c14.72 0 25-8.43 25-20.5 0-1.54-.04-3.07-.18-4.56 1.74-1.51 6.22-1.51 6.22-1.51a2.92 2.92 0 0 0 2.96-2.89v-2.88c0-1.6-1.32-2.89-2.96-2.89-.69-.67-8.25-5.77-29.54-5.77H100.53c-1.8 0-3.44.07-4.97.2-9.54.54-14.68 2.15-19.92 4.7a17 17 0 0 1-4.56.87 17.01 17.01 0 0 1-4.81-.91l-.42-.2v-.01c-4.94-2.42-8.43-4.13-20.78-4.55a61.2 61.2 0 0 0-3.6-.1H38.5ZM19 73.5C19 64.84 19 58 38.39 58h3.22C61 58 61 64.84 61 73.5 61 82.63 52.36 89 40 89h-3.03C22.12 89 19 80.57 19 73.5Zm62 0c0-8.66 0-15.5 19.39-15.5h3.22C123 58 123 64.84 123 73.5c0 9.13-8.64 15.5-21 15.5h-3.03C84.12 89 81 80.57 81 73.5Z" fill="#000" fill-opacity=".1"/><path d="M38.5 50c-21.3 0-28.85 5.1-29.55 5.77A2.92 2.92 0 0 0 6 58.66v2.88c0 1.6 1.32 2.89 2.95 2.89 0 0 5.91 0 5.91 2.88 0 .44.07.65.19.68-.04.82-.05 1.66-.05 2.5C15 83.34 23.31 91 37.24 91H40c14.72 0 25-8.43 25-20.5 0-1.5-.04-3-.17-4.46l1.58-.77c.58-.29 1.21-.5 1.9-.64 1.85-.38 3.95-.22 5.99.28.73.18 1.26.35 1.5.45l1.38.55c-.14 1.5-.18 3.04-.18 4.6C77 83.34 85.31 91 99.24 91H102c14.72 0 25-8.43 25-20.5 0-1.54-.04-3.07-.18-4.56 1.74-1.51 6.22-1.51 6.22-1.51a2.92 2.92 0 0 0 2.96-2.89v-2.88c0-1.6-1.32-2.89-2.96-2.89-.69-.67-8.25-5.77-29.54-5.77H100.53c-1.8 0-3.44.07-4.97.2-9.54.54-14.68 2.15-19.92 4.7a17 17 0 0 1-4.56.87 17.01 17.01 0 0 1-4.81-.91l-.42-.2v-.01c-4.94-2.42-8.43-4.13-20.78-4.55a61.2 61.2 0 0 0-3.6-.1H38.5ZM19 71.5C19 62.84 19 56 38.39 56h3.22C61 56 61 62.84 61 71.5 61 80.63 52.36 87 40 87h-3.03C22.12 87 19 78.57 19 71.5Zm62 0c0-8.66 0-15.5 19.39-15.5h3.22C123 56 123 62.84 123 71.5c0 9.13-8.64 15.5-21 15.5h-3.03C84.12 87 81 78.57 81 71.5Z" fill="#ffafb9"/></g></g></g></g></svg>